<svg version="1.2" xmlns="http://www.w3.org/2000/svg" viewBox="0 0 450 450" width="450" height="450">
	<style>
		.s0 { fill: #afa9a9 } 
	</style>
	<g id="&lt;Group&gt;">
		<path id="&lt;Path&gt;" class="s0" d="m232.64 301.92c-0.01-4.63 3.72-8.39 8.35-8.4 4.63-0.01 8.39 3.72 8.4 8.35 0.01 4.63-3.72 8.39-8.35 8.4-4.63 0.01-8.39-3.72-8.4-8.35z"/>
		<path id="&lt;Path&gt;" class="s0" d="m230.9 366.22c-0.01-5.68 4.57-10.29 10.25-10.31 5.69-0.01 10.29 4.57 10.31 10.26 0.01 5.68-4.57 10.29-10.25 10.3-5.69 0.02-10.3-4.57-10.31-10.25z"/>
		<path id="&lt;Path&gt;" class="s0" d="m229.87 398.37c-0.01-6.3 5.06-11.4 11.36-11.42 6.3-0.01 11.41 5.06 11.42 11.36 0.02 6.3-5.06 11.41-11.36 11.42-6.3 0.02-11.4-5.06-11.42-11.36z"/>
		<path id="&lt;Path&gt;" class="s0" d="m234.61 205.46c-0.01-3.4 2.74-6.16 6.14-6.17 3.4-0.01 6.16 2.74 6.17 6.14 0.01 3.4-2.73 6.16-6.14 6.17-3.4 0.01-6.16-2.73-6.17-6.14z"/>
		<path id="&lt;Path&gt;" class="s0" d="m233.37 269.76c-0.01-4.17 3.36-7.56 7.54-7.57 4.18-0.01 7.57 3.36 7.58 7.54 0.01 4.17-3.36 7.56-7.54 7.57-4.18 0.01-7.56-3.36-7.58-7.54z"/>
		<path id="&lt;Path&gt;" class="s0" d="m235.13 173.31c-0.01-3.07 2.47-5.56 5.54-5.57 3.07-0.01 5.56 2.47 5.57 5.54 0.01 3.07-2.47 5.56-5.54 5.57-3.07 0.01-5.56-2.47-5.57-5.54z"/>
		<path id="&lt;Path&gt;" class="s0" d="m246.47 382.25c-0.01-5.98 4.81-10.83 10.79-10.85 5.99-0.01 10.83 4.81 10.85 10.8 0.02 5.98-4.81 10.83-10.79 10.85-5.98 0.01-10.83-4.81-10.85-10.8z"/>
		<path id="&lt;Path&gt;" class="s0" d="m257.24 359.84c3.36-0.01 6.33-1.72 8.08-4.32 1.05-1.56 1.66-3.44 1.65-5.47q0-1.01-0.2-1.96c-0.92-4.45-4.87-7.79-9.58-7.78-4.72 0.01-8.65 3.37-9.55 7.82q-0.2 0.96-0.2 1.97c0.01 2.03 0.63 3.9 1.69 5.46 1.76 2.59 4.74 4.29 8.11 4.28z"/>
		<path id="&lt;Path&gt;" class="s0" d="m236.35 76.86c0-2.26 1.82-4.09 4.07-4.09 2.26-0.01 4.09 1.81 4.1 4.07 0 2.26-1.82 4.09-4.07 4.09-2.26 0.01-4.09-1.81-4.1-4.07z"/>
		<path id="&lt;Path&gt;" class="s0" d="m235.99 109.01c0-2.5 2.01-4.53 4.52-4.54 2.5 0 4.53 2.01 4.53 4.52 0.01 2.5-2.01 4.53-4.51 4.53-2.5 0.01-4.53-2.01-4.54-4.51z"/>
		<path id="&lt;Path&gt;" class="s0" d="m204.2 76.94c-0.01-2.26 1.81-4.09 4.07-4.09 2.26-0.01 4.09 1.81 4.1 4.07 0 2.26-1.82 4.09-4.08 4.1-2.26 0-4.09-1.82-4.09-4.08z"/>
		<path id="&lt;Path&gt;" class="s0" d="m201.22 269.85c-0.01-4.18 3.36-7.57 7.54-7.58 4.18-0.01 7.57 3.36 7.58 7.54 0.01 4.18-3.36 7.56-7.54 7.57-4.18 0.02-7.57-3.35-7.58-7.53z"/>
		<path id="&lt;Path&gt;" class="s0" d="m203.84 109.09c-0.01-2.5 2.01-4.53 4.51-4.53 2.51-0.01 4.53 2.01 4.54 4.51 0.01 2.5-2.01 4.53-4.51 4.54-2.51 0-4.53-2.02-4.54-4.52z"/>
		<path id="&lt;Path&gt;" class="s0" d="m200.49 302c-0.01-4.63 3.72-8.38 8.35-8.4 4.63-0.01 8.38 3.73 8.4 8.36 0.01 4.63-3.73 8.38-8.36 8.39-4.63 0.01-8.38-3.72-8.39-8.35z"/>
		<path id="&lt;Path&gt;" class="s0" d="m202.46 205.55c-0.01-3.41 2.73-6.17 6.14-6.18 3.4 0 6.16 2.74 6.17 6.14 0.01 3.41-2.74 6.17-6.14 6.17-3.4 0.01-6.16-2.73-6.17-6.13z"/>
		<path id="&lt;Path&gt;" class="s0" d="m202.97 173.39c0-3.07 2.47-5.56 5.55-5.56 3.07-0.01 5.56 2.46 5.57 5.54 0 3.07-2.47 5.56-5.54 5.56-3.08 0.01-5.57-2.46-5.58-5.54z"/>
		<path id="&lt;Path&gt;" class="s0" d="m222.39 194.81q1.06 0.45 2.27 0.45c3.23-0.01 5.84-2.63 5.83-5.86 0-3.23-2.63-5.84-5.86-5.84q-1.21 0.02-2.27 0.47-1.06 0.45-1.86 1.26c-1.05 1.06-1.7 2.52-1.7 4.14 0 1.61 0.66 3.07 1.73 4.13q0.8 0.8 1.86 1.25z"/>
		<path id="&lt;Path&gt;" class="s0" d="m222.64 129.51q0.86 0.36 1.86 0.37c2.62-0.01 4.75-2.15 4.74-4.78 0-2.63-2.14-4.76-4.77-4.75q-0.99 0.01-1.85 0.38-0.86 0.37-1.51 1.02c-0.86 0.87-1.39 2.06-1.39 3.38 0 1.31 0.54 2.5 1.4 3.36q0.66 0.65 1.52 1.02z"/>
		<path id="&lt;Path&gt;" class="s0" d="m221.12 226.95q0.52 0.34 1.11 0.59 1.17 0.5 2.52 0.5c1.34 0 2.59-0.41 3.62-1.11 1.72-1.17 2.84-3.15 2.84-5.38q0-0.68-0.14-1.31c-0.26-1.26-0.89-2.39-1.77-3.27q-0.44-0.44-0.96-0.79-1.04-0.7-2.32-0.97-0.63-0.13-1.3-0.13-0.68 0.01-1.31 0.14-0.63 0.13-1.21 0.38-0.59 0.25-1.1 0.6-0.52 0.35-0.96 0.79c-0.88 0.89-1.5 2.02-1.76 3.28q-0.13 0.64-0.13 1.31c0.01 1.79 0.74 3.41 1.91 4.58q0.44 0.44 0.96 0.79z"/>
		<path id="&lt;Path&gt;" class="s0" d="m222.01 96.54q0.34 0.23 0.73 0.39 0.78 0.33 1.67 0.33c0.89 0 1.72-0.27 2.4-0.74 1.14-0.77 1.89-2.08 1.89-3.57q0-0.44-0.09-0.86c-0.18-0.84-0.59-1.59-1.18-2.17q-0.29-0.29-0.64-0.52-0.69-0.47-1.53-0.65-0.42-0.08-0.87-0.08-0.45 0-0.87 0.09-0.42 0.08-0.8 0.25-0.39 0.16-0.73 0.4-0.35 0.23-0.64 0.52c-0.58 0.59-0.99 1.34-1.16 2.18q-0.09 0.42-0.09 0.87c0 1.18 0.49 2.26 1.27 3.03q0.29 0.29 0.64 0.53z"/>
		<path id="&lt;Path&gt;" class="s0" d="m220.82 424.97c1.37 0.57 2.87 0.88 4.44 0.88 6.29-0.02 11.37-5.12 11.36-11.42-0.02-6.29-5.13-11.38-11.42-11.36-1.57 0-3.07 0.33-4.43 0.91-1.36 0.58-2.59 1.41-3.62 2.45-2.05 2.06-3.32 4.91-3.31 8.06 0 3.15 1.29 5.99 3.36 8.05 1.03 1.02 2.26 1.85 3.62 2.43z"/>
		<path id="&lt;Path&gt;" class="s0" d="m220.47 292.47q0.64 0.43 1.35 0.73 1.44 0.61 3.1 0.62c1.65-0.01 3.17-0.51 4.44-1.37 2.11-1.44 3.5-3.86 3.49-6.61q0-0.82-0.17-1.6c-0.32-1.55-1.09-2.94-2.17-4.02q-0.55-0.54-1.18-0.97-1.29-0.86-2.85-1.19-0.78-0.15-1.6-0.15-0.83 0-1.6 0.16-0.78 0.17-1.5 0.47-0.71 0.31-1.35 0.74-0.63 0.43-1.17 0.97c-1.08 1.08-1.85 2.48-2.16 4.03q-0.16 0.78-0.16 1.6c0.01 2.2 0.9 4.19 2.35 5.62q0.54 0.54 1.18 0.97z"/>
		<path id="&lt;Path&gt;" class="s0" d="m220.96 392.29c1.3 0.55 2.72 0.84 4.22 0.84 5.97-0.01 10.8-4.87 10.78-10.85-0.01-5.97-4.87-10.81-10.84-10.79-1.49 0-2.92 0.31-4.21 0.86-1.29 0.55-2.46 1.34-3.43 2.33-1.96 1.96-3.16 4.67-3.16 7.66 0.01 2.99 1.23 5.69 3.19 7.64 0.99 0.98 2.16 1.77 3.45 2.31z"/>
		<path id="&lt;Path&gt;" class="s0" d="m221.57 326.14c1.06 0.44 2.22 0.69 3.43 0.68 4.87-0.01 8.8-3.96 8.79-8.83-0.01-4.87-3.97-8.81-8.83-8.8-1.22 0.01-2.38 0.26-3.43 0.71-1.05 0.45-2 1.09-2.8 1.89-1.59 1.6-2.57 3.81-2.57 6.24 0.01 2.44 1 4.64 2.6 6.23 0.8 0.8 1.76 1.44 2.81 1.88z"/>
		<path id="&lt;Path&gt;" class="s0" d="m198.75 366.3c-0.02-5.68 4.56-10.29 10.25-10.3 5.69-0.02 10.29 4.57 10.31 10.25 0.01 5.68-4.57 10.29-10.26 10.31-5.68 0.01-10.29-4.57-10.3-10.26z"/>
		<path id="&lt;Path&gt;" class="s0" d="m287.52 326.48q0.87 0.18 1.78 0.18c4.86-0.01 8.8-3.97 8.79-8.84-0.02-4.87-3.97-8.8-8.84-8.79q-0.91 0-1.77 0.18c-4.02 0.84-7.03 4.4-7.02 8.66 0.01 4.26 3.05 7.8 7.06 8.61z"/>
		<path id="&lt;Path&gt;" class="s0" d="m287.68 260.58q0.7 0.15 1.45 0.15c3.96-0.01 7.17-3.24 7.16-7.2-0.01-3.97-3.24-7.17-7.2-7.16q-0.74 0-1.44 0.15c-3.27 0.67-5.73 3.58-5.72 7.05 0.01 3.46 2.48 6.35 5.75 7.01z"/>
		<path id="&lt;Path&gt;" class="s0" d="m287.42 359.57q0.95 0.19 1.97 0.19c3.36-0.01 6.33-1.72 8.08-4.32 1.05-1.57 1.66-3.45 1.65-5.47q0-1.01-0.2-1.97c-0.92-4.44-4.87-7.78-9.59-7.77q-1.01 0-1.96 0.2c-3.81 0.79-6.81 3.81-7.59 7.62q-0.19 0.96-0.19 1.97c0.01 2.02 0.63 3.9 1.68 5.46 1.41 2.07 3.6 3.57 6.15 4.09z"/>
		<path id="&lt;Path&gt;" class="s0" d="m285.42 226.78q1.04 0.7 2.32 0.97 0.63 0.13 1.3 0.13c1.35-0.01 2.59-0.42 3.62-1.12 1.72-1.17 2.85-3.14 2.84-5.38q0-0.67-0.13-1.3c-0.26-1.27-0.89-2.4-1.77-3.28q-0.45-0.43-0.97-0.78-1.04-0.71-2.31-0.97-0.64-0.13-1.31-0.13-0.67 0-1.3 0.13-1.28 0.27-2.32 0.98-0.52 0.36-0.96 0.8c-0.87 0.88-1.5 2.01-1.75 3.28q-0.13 0.63-0.13 1.3c0 2.24 1.14 4.21 2.87 5.37z"/>
		<path id="&lt;Path&gt;" class="s0" d="m287.83 129.62q0.47 0.09 0.96 0.09c2.63-0.01 4.76-2.14 4.75-4.77-0.01-2.63-2.14-4.76-4.77-4.76q-0.5 0.01-0.96 0.1c-2.17 0.45-3.8 2.38-3.8 4.68 0.01 2.3 1.65 4.22 3.82 4.66z"/>
		<path id="&lt;Path&gt;" class="s0" d="m287.81 162.27q0.52 0.11 1.07 0.11c1.82-0.01 3.42-0.94 4.36-2.34 0.57-0.84 0.9-1.86 0.9-2.96q-0.01-0.54-0.11-1.06c-0.5-2.4-2.63-4.21-5.18-4.2q-0.55 0-1.06 0.11c-2.06 0.43-3.69 2.06-4.1 4.12q-0.11 0.52-0.11 1.06c0.01 1.1 0.34 2.11 0.91 2.95 0.76 1.12 1.95 1.93 3.32 2.21z"/>
		<path id="&lt;Path&gt;" class="s0" d="m286.58 31.41q0.56 0.38 1.25 0.52 0.35 0.07 0.71 0.07c0.72 0 1.4-0.22 1.95-0.6 0.93-0.63 1.54-1.7 1.54-2.91q0-0.36-0.07-0.7c-0.14-0.69-0.49-1.3-0.96-1.77q-0.24-0.24-0.52-0.43-0.56-0.38-1.25-0.52-0.35-0.07-0.71-0.07-0.36 0-0.7 0.07-0.69 0.15-1.25 0.53-0.28 0.19-0.52 0.43c-0.48 0.48-0.81 1.09-0.95 1.77q-0.07 0.35-0.07 0.71c0 1.21 0.62 2.27 1.55 2.9z"/>
		<path id="&lt;Path&gt;" class="s0" d="m287.84 64.45q0.38 0.08 0.78 0.08c2.14-0.01 3.88-1.75 3.87-3.89 0-2.14-1.75-3.88-3.89-3.87q-0.4 0-0.78 0.08c-1.76 0.37-3.09 1.94-3.09 3.81 0.01 1.87 1.34 3.44 3.11 3.79z"/>
		<path id="&lt;Path&gt;" class="s0" d="m252.61 292.39c1.28 0.85 2.81 1.35 4.45 1.34 1.65 0 3.18-0.51 4.45-1.37 2.11-1.43 3.49-3.85 3.49-6.6q-0.01-0.83-0.17-1.6c-0.32-1.56-1.1-2.94-2.18-4.02q-0.54-0.54-1.18-0.97-1.28-0.86-2.84-1.19-0.78-0.16-1.61-0.16-0.82 0.01-1.6 0.17-1.56 0.33-2.84 1.21-0.63 0.43-1.17 0.97c-1.08 1.08-1.85 2.47-2.16 4.03q-0.16 0.77-0.16 1.6c0.01 2.75 1.4 5.16 3.52 6.59z"/>
		<path id="&lt;Path&gt;" class="s0" d="m256.73 162.46c1.82-0.01 3.42-0.93 4.36-2.34 0.57-0.84 0.9-1.86 0.9-2.95q0-0.55-0.11-1.07c-0.5-2.4-2.63-4.2-5.18-4.2-2.55 0.01-4.67 1.83-5.16 4.23q-0.11 0.52-0.11 1.06c0.01 1.1 0.34 2.11 0.91 2.95 0.96 1.41 2.57 2.32 4.39 2.32z"/>
		<path id="&lt;Path&gt;" class="s0" d="m250.95 189.34c-0.01-3.23 2.6-5.85 5.83-5.86 3.23-0.01 5.85 2.6 5.86 5.83 0.01 3.24-2.6 5.86-5.83 5.87-3.23 0.01-5.85-2.6-5.86-5.84z"/>
		<path id="&lt;Path&gt;" class="s0" d="m249.78 253.65c-0.01-3.97 3.19-7.19 7.16-7.2 3.97-0.01 7.19 3.19 7.2 7.16 0.01 3.97-3.19 7.19-7.16 7.2-3.97 0.01-7.19-3.19-7.2-7.16z"/>
		<path id="&lt;Path&gt;" class="s0" d="m254.15 96.45c0.69 0.46 1.52 0.73 2.41 0.73 0.89 0 1.71-0.27 2.4-0.74 1.14-0.77 1.89-2.08 1.88-3.57q0-0.44-0.09-0.86c-0.17-0.84-0.59-1.59-1.17-2.17q-0.3-0.3-0.64-0.53-0.69-0.47-1.54-0.64-0.42-0.09-0.86-0.09-0.45 0.01-0.87 0.09-0.84 0.18-1.53 0.65-0.35 0.24-0.64 0.53c-0.58 0.59-1 1.34-1.17 2.18q-0.08 0.42-0.08 0.86c0 1.49 0.76 2.79 1.9 3.56z"/>
		<path id="&lt;Path&gt;" class="s0" d="m252.58 60.74c0-2.14 1.73-3.88 3.87-3.89 2.15 0 3.89 1.73 3.89 3.87 0.01 2.15-1.72 3.89-3.87 3.89-2.14 0.01-3.88-1.72-3.89-3.87z"/>
		<path id="&lt;Path&gt;" class="s0" d="m267.27 173.23c-0.01-3.07 2.47-5.56 5.54-5.57 3.07-0.01 5.56 2.47 5.57 5.54 0.01 3.07-2.47 5.56-5.54 5.57-3.07 0.01-5.56-2.47-5.57-5.54z"/>
		<path id="&lt;Path&gt;" class="s0" d="m268.81 44.63c-0.01-2.04 1.64-3.69 3.68-3.7 2.03 0 3.69 1.64 3.69 3.68 0.01 2.04-1.64 3.69-3.68 3.69-2.03 0.01-3.69-1.64-3.69-3.67z"/>
		<path id="&lt;Path&gt;" class="s0" d="m267.73 141.08c-0.01-2.77 2.23-5.02 5-5.03 2.77-0.01 5.02 2.23 5.03 5 0.01 2.77-2.23 5.02-5 5.03-2.78 0.01-5.02-2.23-5.03-5z"/>
		<path id="&lt;Path&gt;" class="s0" d="m268.49 76.78c0-2.26 1.82-4.09 4.08-4.1 2.26 0 4.09 1.82 4.09 4.08 0.01 2.25-1.81 4.08-4.07 4.09-2.26 0.01-4.09-1.82-4.1-4.07z"/>
		<path id="&lt;Path&gt;" class="s0" d="m263.04 366.14c-0.01-5.69 4.57-10.29 10.26-10.31 5.68-0.01 10.29 4.57 10.3 10.25 0.02 5.69-4.56 10.3-10.25 10.31-5.69 0.02-10.29-4.57-10.31-10.25z"/>
		<path id="&lt;Path&gt;" class="s0" d="m263.96 333.99c-0.01-5.14 4.12-9.29 9.26-9.31 5.13-0.01 9.29 4.13 9.3 9.26 0.01 5.13-4.12 9.29-9.26 9.3-5.13 0.01-9.29-4.12-9.3-9.25z"/>
		<path id="&lt;Path&gt;" class="s0" d="m266.17 237.53c-0.01-3.77 3.03-6.83 6.8-6.84 3.78-0.01 6.83 3.03 6.84 6.81 0.01 3.77-3.03 6.82-6.8 6.83-3.77 0.01-6.83-3.03-6.84-6.8z"/>
		<path id="&lt;Path&gt;" class="s0" d="m265.52 269.68c-0.01-4.18 3.36-7.56 7.53-7.57 4.18-0.01 7.57 3.35 7.58 7.53 0.01 4.18-3.36 7.57-7.54 7.58-4.18 0.01-7.56-3.36-7.57-7.54z"/>
		<path id="&lt;Path&gt;" class="s0" d="m171.29 141.33c-0.01-2.78 2.23-5.02 5-5.03 2.77-0.01 5.02 2.23 5.03 5 0.01 2.77-2.23 5.02-5 5.03-2.77 0-5.02-2.23-5.03-5z"/>
		<path id="&lt;Path&gt;" class="s0" d="m197.72 398.46c-0.02-6.3 5.06-11.41 11.36-11.42 6.3-0.02 11.41 5.06 11.42 11.36 0.02 6.3-5.06 11.4-11.36 11.42-6.3 0.01-11.41-5.07-11.42-11.36z"/>
		<path id="&lt;Path&gt;" class="s0" d="m182.18 382.42c-0.02-5.99 4.8-10.84 10.79-10.85 5.98-0.02 10.83 4.81 10.85 10.79 0.01 5.99-4.81 10.84-10.8 10.85-5.98 0.02-10.83-4.81-10.84-10.79z"/>
		<path id="&lt;Path&gt;" class="s0" d="m185.49 253.81c-0.01-3.97 3.19-7.19 7.16-7.2 3.96-0.01 7.18 3.19 7.19 7.17 0.01 3.97-3.19 7.18-7.16 7.19-3.97 0.01-7.18-3.19-7.19-7.16z"/>
		<path id="&lt;Path&gt;" class="s0" d="m188.32 292.55c1.27 0.86 2.8 1.35 4.45 1.35 1.65-0.01 3.17-0.51 4.44-1.37 2.11-1.43 3.5-3.86 3.49-6.61q0-0.82-0.17-1.6c-0.32-1.55-1.09-2.94-2.17-4.01q-0.55-0.54-1.18-0.97-1.28-0.87-2.85-1.19-0.78-0.16-1.6-0.16-0.83 0-1.6 0.17-1.57 0.33-2.84 1.2-0.64 0.43-1.18 0.98c-1.08 1.08-1.84 2.47-2.16 4.02q-0.16 0.78-0.16 1.6c0.01 2.75 1.41 5.17 3.53 6.59z"/>
		<path id="&lt;Path&gt;" class="s0" d="m192.94 360.01c3.37-0.01 6.34-1.72 8.08-4.33 1.05-1.56 1.66-3.44 1.66-5.46q-0.01-1.01-0.21-1.97c-0.92-4.45-4.86-7.78-9.58-7.77-4.72 0.01-8.65 3.37-9.55 7.82q-0.19 0.96-0.19 1.97c0 2.02 0.62 3.9 1.68 5.46 1.76 2.59 4.74 4.29 8.11 4.28z"/>
		<path id="&lt;Path&gt;" class="s0" d="m188.29 60.91c-0.01-2.15 1.72-3.89 3.87-3.89 2.14-0.01 3.88 1.72 3.89 3.87 0 2.14-1.73 3.88-3.87 3.89-2.15 0-3.89-1.73-3.89-3.87z"/>
		<path id="&lt;Path&gt;" class="s0" d="m189.86 96.62c0.69 0.46 1.51 0.73 2.4 0.73 0.89-0.01 1.72-0.28 2.4-0.74 1.14-0.78 1.89-2.09 1.89-3.57q0-0.45-0.09-0.87c-0.18-0.84-0.59-1.59-1.18-2.17q-0.29-0.29-0.64-0.52-0.69-0.47-1.53-0.65-0.42-0.08-0.87-0.08-0.45 0-0.87 0.09-0.84 0.18-1.53 0.65-0.34 0.23-0.64 0.53c-0.58 0.58-0.99 1.33-1.16 2.17q-0.09 0.42-0.09 0.87c0.01 1.48 0.76 2.79 1.91 3.56z"/>
		<path id="&lt;Path&gt;" class="s0" d="m192.43 162.62c1.82 0 3.42-0.93 4.37-2.33 0.57-0.85 0.9-1.86 0.89-2.96q0-0.54-0.11-1.06c-0.5-2.4-2.63-4.21-5.18-4.2-2.54 0.01-4.67 1.82-5.16 4.23q-0.1 0.51-0.1 1.06c0 1.09 0.34 2.11 0.91 2.95 0.95 1.4 2.56 2.32 4.38 2.31z"/>
		<path id="&lt;Path&gt;" class="s0" d="m186.65 189.51c-0.01-3.23 2.6-5.85 5.83-5.86 3.24-0.01 5.86 2.6 5.87 5.83 0 3.23-2.6 5.85-5.84 5.86-3.23 0.01-5.85-2.6-5.86-5.83z"/>
		<path id="&lt;Path&gt;" class="s0" d="m172.37 44.87c0-2.03 1.64-3.68 3.68-3.69 2.03-0.01 3.69 1.64 3.69 3.68 0.01 2.03-1.64 3.68-3.67 3.69-2.04 0.01-3.69-1.64-3.7-3.68z"/>
		<path id="&lt;Path&gt;" class="s0" d="m158.52 64.56q0.7 0.3 1.51 0.3c2.14-0.01 3.88-1.75 3.87-3.89-0.01-2.14-1.75-3.88-3.89-3.87q-0.81 0.01-1.51 0.31-0.7 0.3-1.23 0.83c-0.7 0.71-1.13 1.68-1.13 2.75 0 1.07 0.44 2.04 1.15 2.74q0.53 0.53 1.23 0.83z"/>
		<path id="&lt;Path&gt;" class="s0" d="m158.35 129.67q0.86 0.37 1.85 0.37c2.63 0 4.76-2.14 4.75-4.77-0.01-2.63-2.14-4.76-4.77-4.75q-1 0-1.86 0.37-0.86 0.38-1.51 1.03c-0.86 0.86-1.39 2.06-1.39 3.37 0.01 1.32 0.54 2.51 1.41 3.37q0.65 0.65 1.52 1.01z"/>
		<path id="&lt;Path&gt;" class="s0" d="m157.28 326.31c1.05 0.44 2.21 0.68 3.43 0.68 4.86-0.01 8.8-3.97 8.79-8.84-0.02-4.86-3.97-8.8-8.84-8.79-1.21 0-2.37 0.25-3.43 0.7-1.05 0.45-2 1.1-2.79 1.9-1.59 1.6-2.58 3.81-2.57 6.24 0.01 2.43 1 4.63 2.6 6.23 0.8 0.79 1.75 1.43 2.81 1.88z"/>
		<path id="&lt;Path&gt;" class="s0" d="m153.88 357.25c0.89 0.88 1.94 1.59 3.11 2.08 1.17 0.5 2.46 0.76 3.8 0.76 3.37-0.01 6.34-1.72 8.09-4.32 1.05-1.56 1.66-3.45 1.65-5.47q0-1.01-0.2-1.97c-0.92-4.44-4.87-7.78-9.59-7.77-1.34 0-2.63 0.28-3.79 0.78-1.17 0.49-2.22 1.21-3.1 2.1-1.33 1.33-2.27 3.04-2.66 4.94q-0.19 0.96-0.19 1.97c0.01 2.03 0.63 3.9 1.68 5.46q0.53 0.78 1.2 1.44z"/>
		<path id="&lt;Path&gt;" class="s0" d="m156.55 161.17q0.72 0.72 1.68 1.13 0.96 0.4 2.05 0.41c1.83-0.01 3.43-0.93 4.37-2.34 0.57-0.84 0.9-1.86 0.9-2.95q-0.01-0.55-0.11-1.07c-0.5-2.4-2.63-4.2-5.18-4.2q-1.1 0.01-2.06 0.42-0.95 0.41-1.67 1.14c-0.72 0.72-1.22 1.64-1.43 2.67q-0.11 0.52-0.11 1.06c0.01 1.1 0.34 2.11 0.91 2.95q0.29 0.42 0.65 0.78z"/>
		<path id="&lt;Path&gt;" class="s0" d="m157.74 260.5q1.3 0.55 2.8 0.56c3.96-0.01 7.17-3.24 7.16-7.2-0.01-3.97-3.24-7.17-7.2-7.16q-1.49 0.01-2.79 0.57-1.3 0.56-2.28 1.54c-1.3 1.31-2.1 3.1-2.09 5.09 0 1.98 0.81 3.77 2.12 5.07q0.98 0.98 2.28 1.53z"/>
		<path id="&lt;Path&gt;" class="s0" d="m156.83 227.11q0.52 0.35 1.1 0.59 1.17 0.5 2.52 0.51c1.34-0.01 2.59-0.42 3.62-1.12 1.72-1.17 2.85-3.14 2.84-5.38q0-0.67-0.13-1.3c-0.26-1.27-0.89-2.4-1.78-3.27q-0.44-0.44-0.96-0.79-1.04-0.71-2.31-0.97-0.64-0.13-1.31-0.13-0.67 0-1.3 0.13-0.64 0.14-1.22 0.39-0.58 0.24-1.1 0.6-0.52 0.35-0.96 0.79c-0.87 0.88-1.5 2.01-1.76 3.28q-0.12 0.63-0.12 1.3c0 1.8 0.73 3.41 1.91 4.58q0.44 0.44 0.96 0.79z"/>
		<path id="&lt;Path&gt;" class="s0" d="m157.99 31.74q0.28 0.19 0.6 0.32 0.63 0.27 1.36 0.27c0.72 0 1.4-0.22 1.95-0.6 0.93-0.63 1.54-1.7 1.54-2.91q0-0.36-0.07-0.7c-0.15-0.69-0.49-1.3-0.96-1.77q-0.24-0.24-0.52-0.43-0.57-0.38-1.25-0.52-0.35-0.07-0.71-0.07-0.36 0-0.7 0.07-0.35 0.08-0.66 0.21-0.32 0.13-0.6 0.32-0.28 0.19-0.51 0.43c-0.48 0.48-0.81 1.09-0.95 1.78q-0.07 0.34-0.07 0.7c0 0.97 0.39 1.84 1.03 2.47q0.24 0.24 0.52 0.43z"/>
		<path id="&lt;Path&gt;" class="s0" d="m169.73 237.78c-0.01-3.77 3.03-6.83 6.81-6.84 3.77-0.01 6.82 3.03 6.83 6.8 0.01 3.78-3.03 6.83-6.8 6.84-3.77 0.01-6.83-3.03-6.84-6.8z"/>
		<path id="&lt;Path&gt;" class="s0" d="m170.83 173.48c-0.01-3.07 2.47-5.56 5.54-5.57 3.07-0.01 5.56 2.47 5.57 5.54 0.01 3.07-2.47 5.56-5.54 5.57-3.07 0.01-5.56-2.47-5.57-5.54z"/>
		<path id="&lt;Path&gt;" class="s0" d="m172.06 77.03c-0.01-2.26 1.81-4.09 4.07-4.1 2.26 0 4.09 1.82 4.09 4.07 0.01 2.26-1.81 4.09-4.07 4.1-2.26 0-4.09-1.82-4.09-4.07z"/>
		<path id="&lt;Path&gt;" class="s0" d="m169.08 269.93c-0.01-4.18 3.36-7.56 7.54-7.58 4.18-0.01 7.56 3.36 7.57 7.54 0.01 4.18-3.36 7.57-7.53 7.58-4.18 0.01-7.57-3.36-7.58-7.54z"/>
		<path id="&lt;Path&gt;" class="s0" d="m166.6 366.39c-0.01-5.69 4.57-10.3 10.26-10.31 5.68-0.02 10.29 4.57 10.3 10.25 0.02 5.69-4.56 10.29-10.25 10.31-5.68 0.01-10.29-4.57-10.31-10.25z"/>
		<path id="&lt;Path&gt;" class="s0" d="m167.52 334.23c-0.01-5.13 4.13-9.28 9.26-9.3 5.13-0.01 9.29 4.13 9.3 9.26 0.01 5.13-4.12 9.28-9.25 9.3-5.14 0.01-9.29-4.13-9.31-9.26z"/>
	</g>
</svg>